{"title":"Santeria:The Soul Possessed (2011) DVDRip XviD-HORRORSPOKE","uid":6660721,"size":512186368,"categoryP":"video","categoryS":"movies","magnet":"?xt=urn:btih:5bd44490cbfa1a15049e02200e828dc0e0e5b6b8&amp;dn=Santeria%3AThe+Soul+Possessed+%282011%29+DVDRip+XviD-HORRORSPOKE&amp;tr=udp%3A%2F%2Ftracker.openbittorrent.com%3A80&amp;tr=udp%3A%2F%2Fopen.demonii.com%3A1337&amp;tr=udp%3A%2F%2Ftracker.coppersurfer.tk%3A6969&amp;tr=udp%3A%2F%2Fexodus.desync.com%3A6969","seeders":0,"leechers":1,"uploader":"Horrorspoke","files":-1,"time":1315503443,"description":"A nine-year-old boy who has just received a phantom Eucharist, his horrified cousin, and his religious aunt are trapped in their home by a sadistic phantom force in director Benny MathewsÃ‚Â´ unrelenting tale of supernatural terror. Despite the intention of the sacrament to keep the young child safe from the malevolent forces of evil, the powers of faith fail when young Ricky Banda and his two family members find themselves stalked by a dark entity intent on claiming their souls for the damned.\n\nCredit to whoever found the original file :)\n\nI think this is a low budget sorta flick, and it's been held up in the production rooms for quite some time :/\n\nTech Specs:\n\nVideo\nID                               : 0\nFormat                           : MPEG-4 Visual\nFormat profile                   : Advanced Simple@L5\nFormat settings, BVOP            : 1\nFormat settings, QPel            : No\nFormat settings, GMC             : No warppoints\nFormat settings, Matrix          : Default (H.263)\nMuxing mode                      : Packed bitstream\nCodec ID                         : XVID\nCodec ID/Hint                    : XviD\nDuration                         : 1h 21mn\nBit rate                         : 712 Kbps\nWidth                            : 608 pixels\nHeight                           : 320 pixels\nDisplay aspect ratio             : 1.900\nFrame rate                       : 23.976 fps\nColor space                      : YUV\nChroma subsampling               : 4:2:0\nBit depth                        : 8 bits\nScan type                        : Progressive\nCompression mode                 : Lossy\nBits/(Pixel*Frame)               : 0.153\nStream size                      : 417 MiB (85%)\nWriting library                  : XviD 62\n\nAudio\nID                               : 1\nFormat                           : MPEG Audio\nFormat version                   : Version 1\nFormat profile                   : Layer 3\nMode                             : Joint stereo\nCodec ID                         : 55\nCodec ID/Hint                    : MP3\nDuration                         : 1h 21mn\nBit rate mode                    : Variable\nBit rate                         : 110 Kbps\nNominal bit rate                 : 128 Kbps\nChannel(s)                       : 2 channels\nSampling rate                    : 48.0 KHz\nCompression mode                 : Lossy\nStream size                      : 64.4 MiB (13%)\nAlignment                        : Aligned on interleaves\nInterleave, duration             : 24 ms (0.58 video frame)\nInterleave, preload duration     : 663 ms\nWriting library                  : LAME3.97 \nEncoding settings                : -m j -V 4 -q 2 -lowpass 17 --abr 128\n\nSCREENS:\n &lt;a href=&quot;\nhttp://imghunt.org/images/36759039419559712998.png&quot; rel=&quot;nofollow&quot; target=&quot;_NEW&quot;&gt;\nhttp://imghunt.org/images/36759039419559712998.png&lt;/a&gt; &lt;a href=&quot;\nhttp://imghunt.org/images/09821804664924276294.png&quot; rel=&quot;nofollow&quot; target=&quot;_NEW&quot;&gt;\nhttp://imghunt.org/images/09821804664924276294.png&lt;/a&gt;\n\n\nSEED AND ENJOY!!!","torrent":{"xt":"urn:btih:5bd44490cbfa1a15049e02200e828dc0e0e5b6b8","amp;dn":"Santeria%3AThe+Soul+Possessed+%282011%29+DVDRip+XviD-HORRORSPOKE","amp;tr":["udp%3A%2F%2Ftracker.openbittorrent.com%3A80","udp%3A%2F%2Fopen.demonii.com%3A1337","udp%3A%2F%2Ftracker.coppersurfer.tk%3A6969","udp%3A%2F%2Fexodus.desync.com%3A6969"],"infoHash":"5bd44490cbfa1a15049e02200e828dc0e0e5b6b8","infoHashBuffer":{"type":"Buffer","data":[91,212,68,144,203,250,26,21,4,158,2,32,14,130,141,192,224,229,182,184]},"announce":[],"urlList":[]}}